<svg xmlns="http://www.w3.org/2000/svg" xmlns:xlink="http://www.w3.org/1999/xlink" width="100" height="100" viewBox="0 0 100 100"><g><g transform="translate(50 50) scale(0.69 0.69) rotate(0) translate(-50 -50)" style="fill:#000000"><svg fill="#000000" xmlns="http://www.w3.org/2000/svg" xmlns:xlink="http://www.w3.org/1999/xlink" version="1.1" x="0px" y="0px" viewBox="0 0 100 100" style="enable-background:new 0 0 100 100;" xml:space="preserve"><path d="M71,32.3L49.8,52.5l-13.1-9.9c-1.3-0.9-3.1-0.7-4,0.6c-0.9,1.3-0.7,3.1,0.6,4l15.1,11.3c0.5,0.4,1.1,0.6,1.7,0.6  c0.7,0,1.4-0.3,2-0.8l23-21.9c1.1-1.1,1.2-2.9,0.1-4C74,31.3,72.2,31.2,71,32.3z"></path><path d="M50,5c-12.4,0-23.7,5-31.8,13.2C10,26.3,5,37.6,5,50c0,24.8,20.1,45,45,45c6.2,0,12.1-1.3,17.5-3.5  c5.4-2.3,10.2-5.6,14.3-9.6C90,73.7,95,62.4,95,50C95,25.1,74.8,5,50,5z M87.8,47.9H83c-1.6,0-2.9,1.3-2.9,2.9  c0,1.6,1.3,2.9,2.9,2.9h4.7c-0.9,9-4.9,17.1-10.9,23.2C70.6,83,62.3,87,53,87.8v-4.9c0-1.6-1.2-2.9-2.8-2.9s-2.8,1.3-2.8,2.9v4.9  c-9.4-0.7-17.8-4.7-24.1-11c-6.1-6.1-10.1-14.2-10.9-23.2h5c1.6,0,2.9-1.3,2.9-2.9c0-1.6-1.3-2.9-2.9-2.9h-5.1v0  c0.5-9.6,4.6-18.3,11-24.6c6.2-6.3,14.7-10.4,24.1-11v5.7c0,1.6,1.2,2.9,2.8,2.9s2.8-1.3,2.8-2.9v-5.6c9.3,0.7,17.6,4.8,23.8,11  C83.1,29.6,87.3,38.3,87.8,47.9L87.8,47.9z"></path></svg></g></g></svg>