<svg xmlns="http://www.w3.org/2000/svg" xmlns:xlink="http://www.w3.org/1999/xlink" width="100" height="100" viewBox="0 0 100 100"><g><g transform="translate(50 50) scale(0.69 0.69) rotate(0) translate(-50 -50)" style="fill:#000000"><svg fill="#000000" xmlns="http://www.w3.org/2000/svg" xmlns:xlink="http://www.w3.org/1999/xlink" version="1.1" x="0px" y="0px" viewBox="0 0 100 100" style="enable-background:new 0 0 100 100;" xml:space="preserve"><g><path d="M55.4,26.5H18.5c-1.4,0-2.5,1.1-2.5,2.5s1.1,2.5,2.5,2.5h36.9c1.1,3.7,4.5,6.4,8.6,6.4c4,0,7.5-2.7,8.5-6.4h9.1   c1.4,0,2.5-1.1,2.5-2.5s-1.1-2.5-2.5-2.5h-9.1c-1.1-3.7-4.5-6.4-8.5-6.4C59.9,20.1,56.5,22.8,55.4,26.5z M67.8,29   c0,2.2-1.8,3.9-3.9,3.9c-2.1,0-3.9-1.7-3.9-3.9s1.8-3.9,3.9-3.9C65.9,25.1,67.8,26.8,67.8,29z"></path></g><g><path d="M25.4,46.5h-6.9c-1.4,0-2.5,1.1-2.5,2.5s1.1,2.5,2.5,2.5h6.9c1.1,3.7,4.5,6.4,8.6,6.4c4,0,7.5-2.7,8.5-6.4h39.1   c1.4,0,2.5-1.1,2.5-2.5s-1.1-2.5-2.5-2.5H42.5c-1.1-3.7-4.5-6.4-8.5-6.4C29.9,40.1,26.5,42.8,25.4,46.5z M37.8,49   c0,2.2-1.8,3.9-3.9,3.9S30,51.2,30,49s1.8-3.9,3.9-3.9S37.8,46.8,37.8,49z"></path></g><g><path d="M43.4,68.5H18.5c-1.4,0-2.5,1.1-2.5,2.5s1.1,2.5,2.5,2.5h24.9c1.1,3.7,4.5,6.4,8.6,6.4c4,0,7.5-2.7,8.5-6.4h21.1   c1.4,0,2.5-1.1,2.5-2.5s-1.1-2.5-2.5-2.5H60.5c-1.1-3.7-4.5-6.4-8.5-6.4C47.9,62.1,44.5,64.8,43.4,68.5z M55.8,71   c0,2.2-1.8,3.9-3.9,3.9S48,73.2,48,71c0-2.2,1.8-3.9,3.9-3.9S55.8,68.8,55.8,71z"></path></g></svg></g></g></svg>