<svg id="Laag_1" data-name="Laag 1" xmlns="http://www.w3.org/2000/svg" viewBox="0 0 92 92"><defs><style>.cls-1{fill:#fefefe;stroke:#e43f3b;stroke-miterlimit:10;stroke-width:2px;}.cls-2{fill:#e43f3b;}</style></defs><title>location-rood</title><circle class="cls-1" cx="46" cy="46" r="45"/><path class="cls-2" d="M50,23.69A17.81,17.81,0,0,0,32.06,41.34a17.41,17.41,0,0,0,2.85,9.55C39.43,57.81,49,71.06,49,71.06a1.19,1.19,0,0,0,1.67.27,1.24,1.24,0,0,0,.28-.28l3.52-5a12.43,12.43,0,0,1,4.21,1.65c1.09.74,1.51,1.46,1.51,2.07,0,.8-.8,1.85-2.66,2.72A18.47,18.47,0,0,1,50,73.92a18.47,18.47,0,0,1-7.56-1.46c-1.86-.87-2.66-1.92-2.66-2.72s.77-1.81,2.57-2.67a1.2,1.2,0,1,0-1-2.17h0c-2.22,1.07-3.92,2.69-3.92,4.83s1.75,3.81,4,4.88A20.43,20.43,0,0,0,50,76.31a20.43,20.43,0,0,0,8.58-1.69c2.28-1.07,4-2.71,4-4.88a5.05,5.05,0,0,0-2.56-4A13.27,13.27,0,0,0,56,63.92l9.1-13a16.66,16.66,0,0,0,2.87-9.58A17.81,17.81,0,0,0,50,23.69Zm0,2.39A15.39,15.39,0,0,1,65.55,41.34a14.27,14.27,0,0,1-2.44,8.21L50,68.29c-1.48-2.05-9.05-12.54-13.08-18.71a15,15,0,0,1-2.46-8.24A15.39,15.39,0,0,1,50,26.08ZM50,34a7.7,7.7,0,1,0,7.68,7.7A7.71,7.71,0,0,0,50,34Zm0,2.4a5.3,5.3,0,1,1-5.29,5.3A5.28,5.28,0,0,1,50,36.37Z" transform="translate(-4 -5)"/></svg>