<svg xmlns="http://www.w3.org/2000/svg" xmlns:xlink="http://www.w3.org/1999/xlink" width="100" height="100" viewBox="0 0 100 100"><g><g transform="translate(50 50) scale(0.69 0.69) rotate(0) translate(-50 -50)" style="fill:#000000"><svg fill="#000000" xmlns:dc="http://purl.org/dc/elements/1.1/" xmlns:cc="http://creativecommons.org/ns#" xmlns:rdf="http://www.w3.org/1999/02/22-rdf-syntax-ns#" xmlns:svg="http://www.w3.org/2000/svg" xmlns="http://www.w3.org/2000/svg" xmlns:sodipodi="http://sodipodi.sourceforge.net/DTD/sodipodi-0.dtd" xmlns:inkscape="http://www.inkscape.org/namespaces/inkscape" version="1.1" x="0px" y="0px" viewBox="0 0 100 100"><g transform="translate(0,-952.36218)"><path style="color:#000000;font-style:normal;font-variant:normal;font-weight:normal;font-stretch:normal;font-size:medium;line-height:normal;font-family:sans-serif;font-variant-ligatures:normal;font-variant-position:normal;font-variant-caps:normal;font-variant-numeric:normal;font-variant-alternates:normal;font-feature-settings:normal;text-indent:0;text-align:start;text-decoration:none;text-decoration-line:none;text-decoration-style:solid;text-decoration-color:#000000;letter-spacing:normal;word-spacing:normal;text-transform:none;writing-mode:lr-tb;direction:ltr;text-orientation:mixed;dominant-baseline:auto;baseline-shift:baseline;text-anchor:start;white-space:normal;shape-padding:0;clip-rule:nonzero;display:inline;overflow:visible;visibility:visible;opacity:1;isolation:auto;mix-blend-mode:normal;color-interpolation:sRGB;color-interpolation-filters:linearRGB;solid-color:#000000;solid-opacity:1;vector-effect:none;fill:#000000;fill-opacity:1;fill-rule:nonzero;stroke:none;stroke-width:3.99999976;stroke-linecap:round;stroke-linejoin:round;stroke-miterlimit:4;stroke-dasharray:none;stroke-dashoffset:0;stroke-opacity:1;marker:none;color-rendering:auto;image-rendering:auto;shape-rendering:auto;text-rendering:auto;enable-background:accumulate" d="M 50 6 C 33.473749 6 20 19.221541 20 35.519531 C 20 41.396181 21.763373 46.887628 24.765625 51.486328 C 32.323065 63.062128 48.380859 85.222656 48.380859 85.222656 A 2.0001999 2.0001999 0 0 0 51.638672 85.195312 C 51.638672 85.195312 55.929466 79.065046 57.521484 76.791016 C 60.451507 77.428435 62.91332 78.423545 64.566406 79.542969 C 66.390906 80.778469 67.09375 81.987513 67.09375 83.007812 C 67.09375 84.342813 65.747949 86.096141 62.646484 87.556641 C 59.54502 89.017041 55.014708 90 50 90 C 44.985292 90 40.45498 89.017041 37.353516 87.556641 C 34.252051 86.096141 32.90625 84.342813 32.90625 83.007812 C 32.90625 81.698913 34.200396 79.986509 37.207031 78.537109 A 2.0002002 2.0002002 0 1 0 35.470703 74.933594 C 31.760249 76.722294 28.90625 79.434012 28.90625 83.007812 C 28.90625 86.639412 31.837807 89.381381 35.648438 91.175781 C 39.459068 92.970181 44.475899 94 50 94 C 55.524101 94 60.540932 92.970181 64.351562 91.175781 C 68.162194 89.381381 71.09375 86.639412 71.09375 83.007812 C 71.09375 80.222213 69.276304 77.901469 66.808594 76.230469 C 64.944732 74.968363 62.62707 73.97809 59.988281 73.269531 C 65.265387 65.73172 70.128878 58.78388 75.199219 51.541016 C 78.400712 46.967346 80 41.362141 80 35.519531 C 80 19.221541 66.526252 6 50 6 z M 50 10 C 64.401646 10 76 21.421101 76 35.519531 C 76 40.632081 74.600888 45.419164 71.921875 49.246094 C 64.6087 59.692794 51.890645 77.862091 49.982422 80.587891 C 47.501113 77.153291 34.85432 59.623081 28.115234 49.300781 C 25.516871 45.320781 24 40.598041 24 35.519531 C 24 21.421101 35.598355 10 50 10 z M 50 23.197266 C 42.934335 23.197266 37.162109 28.982323 37.162109 36.064453 C 37.162109 43.146583 42.934335 48.931641 50 48.931641 C 57.065665 48.931641 62.837891 43.146583 62.837891 36.064453 C 62.837891 28.982323 57.065665 23.197266 50 23.197266 z M 50 27.205078 C 54.906425 27.205078 58.839844 31.146543 58.839844 36.064453 C 58.839844 40.982363 54.906425 44.925891 50 44.925781 C 45.093575 44.925781 41.160156 40.982363 41.160156 36.064453 C 41.160156 31.146543 45.093575 27.204968 50 27.205078 z " transform="translate(0,952.36218)"></path></g></svg></g></g></svg>