<?xml version="1.0" encoding="utf-8"?>
<!-- Generator: Adobe Illustrator 23.0.3, SVG Export Plug-In . SVG Version: 6.00 Build 0)  -->
<svg version="1.1" id="Laag_1" xmlns:sketch="http://www.bohemiancoding.com/sketch/ns"
	 xmlns="http://www.w3.org/2000/svg" xmlns:xlink="http://www.w3.org/1999/xlink" x="0px" y="0px" viewBox="0 0 100 100"
	 style="enable-background:new 0 0 100 100;" xml:space="preserve">
<style type="text/css">
	.st0{fill-rule:evenodd;clip-rule:evenodd;fill:#E53935;}
</style>
<g>
	<g transform="translate(50 50) scale(0.69 0.69) rotate(0) translate(-50 -50)">
		<title>chat_006-message-bubble-conversation-talk</title>
		<desc>Created with Sketch.</desc>
		<g sketch:type="MSPage">
			<g transform="translate(-270.000000, -45.000000)" sketch:type="MSArtboardGroup">
				<path sketch:type="MSShapeGroup" class="st0" d="M284.4,107.3l-10.8,15.1c-0.9,1.2,0.2,2.9,1.7,2.6l20-4.4
					c8,6,18.5,9.4,29.6,9.4c23.9,0,43.3-15.6,43.3-35S348.9,60,325,60s-43.3,15.6-43.3,35C281.7,99.6,282.8,104,284.4,107.3z
					 M325,63.3c22.2,0,40,14.3,40,31.7s-17.8,31.7-40,31.7c-10.7,0-20.7-3.4-28.2-9.2c-0.4-0.3-0.9-0.4-1.4-0.3l-16.5,3.6l8.8-12.3
					c0.4-0.5,0.4-1.2,0.1-1.7C286,103,285,99.1,285,95C285,77.6,302.8,63.3,325,63.3z M310,98.3c1.8,0,3.3-1.5,3.3-3.3
					c0-1.8-1.5-3.3-3.3-3.3s-3.3,1.5-3.3,3.3C306.7,96.8,308.2,98.3,310,98.3z M325,98.3c1.8,0,3.3-1.5,3.3-3.3
					c0-1.8-1.5-3.3-3.3-3.3s-3.3,1.5-3.3,3.3C321.7,96.8,323.2,98.3,325,98.3z M340,98.3c1.8,0,3.3-1.5,3.3-3.3
					c0-1.8-1.5-3.3-3.3-3.3s-3.3,1.5-3.3,3.3C336.7,96.8,338.2,98.3,340,98.3z"/>
			</g>
		</g>
	</g>
</g>
</svg>
