<svg xmlns="http://www.w3.org/2000/svg" xmlns:xlink="http://www.w3.org/1999/xlink" width="100" height="100" viewBox="0 0 100 100"><g><g transform="translate(50 50) scale(0.69 0.69) rotate(0) translate(-50 -50)" style="fill:#000000"><svg fill="#000000" xmlns="http://www.w3.org/2000/svg" xmlns:xlink="http://www.w3.org/1999/xlink" xmlns:sketch="http://www.bohemiancoding.com/sketch/ns" viewBox="0 0 30 30" version="1.1" x="0px" y="0px"><title>chat_006-message-bubble-conversation-talk</title><desc>Created with Sketch.</desc><g stroke="none" stroke-width="1" fill="none" fill-rule="evenodd" sketch:type="MSPage"><g sketch:type="MSArtboardGroup" transform="translate(-270.000000, -45.000000)" fill="#000000"><path d="M274.326289,63.6829626 L271.093133,68.2093809 C270.826938,68.5820542 271.160213,69.0867625 271.607485,68.9883102 L277.619856,67.6721896 C280.009852,69.4774246 283.156862,70.5 286.5,70.5 C293.658247,70.5 299.5,65.8265974 299.5,60 C299.5,54.1734026 293.658247,49.5 286.5,49.5 C279.341753,49.5 273.5,54.1734026 273.5,60 C273.5,61.3763367 273.833435,62.694397 274.326289,63.6829626 Z M286.5,50.5 C293.148872,50.5 298.5,54.7809024 298.5,60 C298.5,65.2190976 293.148872,69.5 286.5,69.5 C283.285315,69.5 280.275453,68.4932564 278.042218,66.7351576 C277.924589,66.6425552 277.771656,66.6075323 277.625451,66.6397146 L272.665771,67.727417 L275.308959,64.0276905 C275.416936,63.8765225 275.432201,63.6779519 275.348598,63.5120561 C274.789997,62.403601 274.5,61.2177617 274.5,60 C274.5,54.7809024 279.851128,50.5 286.5,50.5 Z M282,61 C282.552285,61 283,60.5522847 283,60 C283,59.4477153 282.552285,59 282,59 C281.447715,59 281,59.4477153 281,60 C281,60.5522847 281.447715,61 282,61 Z M286.5,61 C287.052285,61 287.5,60.5522847 287.5,60 C287.5,59.4477153 287.052285,59 286.5,59 C285.947715,59 285.5,59.4477153 285.5,60 C285.5,60.5522847 285.947715,61 286.5,61 Z M291,61 C291.552285,61 292,60.5522847 292,60 C292,59.4477153 291.552285,59 291,59 C290.447715,59 290,59.4477153 290,60 C290,60.5522847 290.447715,61 291,61 Z" sketch:type="MSShapeGroup"></path></g></g></svg></g></g></svg>