<svg xmlns="http://www.w3.org/2000/svg" xmlns:xlink="http://www.w3.org/1999/xlink" width="100" height="100" viewBox="0 0 100 100"><g><g transform="translate(50 50) scale(0.69 0.69) rotate(0) translate(-50 -50)" style="fill:#000000"><svg xmlns="http://www.w3.org/2000/svg" viewBox="0 0 51 64" fill="none" x="0px" y="0px"><path d="M48.9 0.903232C47.2 -0.496768 44.6 -0.196767 43.1 1.30323L36.9 7.50323C36.2 6.90323 35.4 6.50323 34.4 6.50323H19C15.2 6.50323 11.6 8.00323 9 10.7032L6.2 13.5032L4.1 11.4032C3.7 11.0032 3.1 11.0032 2.7 11.4032L0.3 13.8032C-0.1 14.2032 -0.1 14.8032 0.3 15.2032C0.7 15.6032 1.3 15.6032 1.7 15.2032L3.4 13.5032L5.5 15.6032L13.4 23.5032L15.5 25.6032L13.8 27.3032C13.4 27.7032 13.4 28.3032 13.8 28.7032C14.2 29.1032 14.8 29.1032 15.2 28.7032L17.6 26.3032C18 25.9032 18 25.3032 17.6 24.9032L15.5 22.8032L16.7 21.6032C17.1 21.2032 17.6 21.0032 18.1 21.0032H30.9C33.8 21.0032 36.6 19.9032 38.6 17.8032L49.3 7.10323C51 5.50323 50.9 2.60323 48.9 0.903232ZM47.8 5.80323L37.1 16.5032C35.4 18.2032 33.2 19.1032 30.8 19.1032H18C16.9 19.1032 15.9 19.5032 15.2 20.3032L14 21.5032L7.5 15.0032L10.3 12.2032C12.6 9.90323 15.7 8.60323 18.9 8.60323H34.4C35.1 8.60323 35.7 9.00323 36 9.60323C36.3 10.3032 36.1 10.9032 35.6 11.5032C35.3 11.8032 34.9 12.0032 34.4 12.0032H27.9C27.3 12.0032 26.9 12.4032 26.9 13.0032C26.9 13.6032 27.3 14.0032 27.9 14.0032H34.4C35.4 14.0032 36.3 13.6032 37 12.9032C38 11.9032 38.3 10.6032 38 9.30323L44.7 2.60323C45.6 1.70323 47 1.70323 47.9 2.60323C48.7 3.50323 48.7 4.90323 47.8 5.80323Z" transform="translate(0 34.8718)" fill="black"></path><path d="M4.20533 42.275C4.40533 42.275 4.70533 42.175 4.90533 41.975C5.30533 41.575 5.30533 40.975 4.90533 40.575C1.70533 37.275 1.90533 32.175 1.90533 32.175C2.40533 24.375 11.0053 17.775 11.1053 17.675C11.7053 17.175 12.2053 16.475 12.6053 15.675H24.6053C25.0053 16.475 25.5053 17.075 26.1053 17.675C26.2053 17.775 34.8053 24.275 35.2053 32.075C35.2053 32.075 35.2053 32.575 35.2053 33.475C35.2053 33.975 35.6053 34.475 36.1053 34.475C36.6053 34.475 37.1053 34.075 37.1053 33.575C37.2053 32.675 37.2053 32.075 37.2053 31.975C36.8053 23.375 27.7053 16.475 27.4053 16.275C27.2053 16.175 27.1053 15.975 26.9053 15.775C28.3053 15.475 29.4053 14.275 29.4053 12.775C29.4053 11.175 28.2053 9.875 26.6053 9.775L30.1053 5.575L30.2053 5.475L30.3053 5.375C31.2053 3.975 30.9053 2.275 29.6053 1.175C28.3053 0.0749999 26.5053 0.0749999 25.2053 1.175C24.0053 2.175 22.2053 2.175 21.0053 0.975C19.7053 -0.325 17.6053 -0.325 16.2053 0.975C15.1053 2.075 13.2053 2.175 12.0053 1.175C10.7053 0.0749999 8.90533 0.0749999 7.60533 1.175C6.30533 2.275 6.00533 3.975 6.90533 5.375L7.00533 5.475C7.00533 5.475 7.00533 5.575 7.10533 5.575L10.6053 9.775C9.00533 9.875 7.80533 11.175 7.80533 12.775C7.80533 14.275 8.90533 15.475 10.3053 15.775C10.2053 15.975 10.0053 16.075 9.90533 16.275C9.50533 16.575 0.505333 23.475 0.00533337 32.175C0.00533337 32.375 -0.294667 38.075 3.60533 42.075C3.70533 42.175 3.90533 42.275 4.20533 42.275ZM8.90533 2.675C9.30533 2.275 10.1053 2.075 10.7053 2.675C12.7053 4.375 15.7053 4.275 17.6053 2.375C18.1053 1.875 19.0053 1.875 19.6053 2.375C21.5053 4.275 24.5053 4.375 26.4053 2.675C27.1053 2.075 27.8053 2.275 28.2053 2.675C28.6053 3.075 28.9053 3.675 28.5053 4.375L24.7053 8.975C24.6053 9.075 24.6053 9.175 24.5053 9.275C24.5053 9.275 24.4053 9.475 24.3053 9.775H12.8053C12.7053 9.475 12.7053 9.275 12.7053 9.275C12.7053 9.175 12.6053 9.075 12.5053 8.975L8.60533 4.375C8.20533 3.675 8.50533 2.975 8.90533 2.675ZM9.80533 12.775C9.80533 12.175 10.3053 11.675 10.9053 11.675H26.4053C27.0053 11.675 27.5053 12.175 27.5053 12.775C27.5053 13.375 27.0053 13.875 26.4053 13.875H10.9053C10.3053 13.875 9.80533 13.375 9.80533 12.775Z" transform="translate(6.99466)" fill="black"></path><path d="M10.1 0C4.5 0 0 4.5 0 10.1C0 15.7 4.5 20.2 10.1 20.2C15.7 20.2 20.2 15.7 20.2 10.1C20.2 4.5 15.7 0 10.1 0ZM10.1 18.3C5.6 18.3 1.9 14.6 1.9 10.1C1.9 5.6 5.6 1.9 10.1 1.9C14.6 1.9 18.3 5.6 18.3 10.1C18.3 14.6 14.6 18.3 10.1 18.3Z" transform="translate(15.5 19.175)" fill="black"></path><path d="M4.3 5.2V2.3C4.8 2.5 5.1 2.9 5.2 3.5L7.1 3.3C7 2.5 6.7 1.9 6.2 1.5C5.7 1.1 5.1 0.800001 4.3 0.700001V0H3.2V0.700001C2.4 0.800001 1.7 1.1 1.1 1.6C0.599998 2.1 0.299999 2.8 0.299999 3.7C0.299999 5.4 1.3 6.5 3.2 7V10.1C2.9 10 2.7 9.8 2.5 9.5C2.3 9.2 2.1 8.9 2 8.5L0 8.7C0.3 10.6 1.4 11.7 3.2 11.9V12.8H4.3V11.9C5.3 11.8 6 11.4 6.6 10.8C7.2 10.2 7.5 9.4 7.5 8.5C7.5 7.7 7.3 7 6.8 6.4C6.2 5.9 5.4 5.5 4.3 5.2ZM3.2 4.9C2.5 4.6 2.2 4.2 2.2 3.6C2.2 3.3 2.3 3.1 2.5 2.8C2.7 2.5 2.9 2.4 3.2 2.3V4.9ZM5.2 9.7C5 10 4.6 10.1 4.3 10.2V7.3C5.2 7.5 5.6 8 5.6 8.7C5.5 9.1 5.4 9.4 5.2 9.7Z" transform="translate(21.9 22.975)" fill="black"></path></svg></g></g></svg>