<svg xmlns="http://www.w3.org/2000/svg" xmlns:xlink="http://www.w3.org/1999/xlink" width="100" height="100" viewBox="0 0 100 100"><g><g transform="translate(50 50) scale(0.69 0.69) rotate(0) translate(-50 -50)" style="fill:#000000"><svg fill="#000000" xmlns="http://www.w3.org/2000/svg" xmlns:xlink="http://www.w3.org/1999/xlink" version="1.1" x="0px" y="0px" viewBox="0 0 64 64" enable-background="new 0 0 64 64" xml:space="preserve"><path d="M53.9204,14.3223l-4.2427-4.2427c-1.5117-1.5107-4.146-1.5107-5.6567,0L16.4442,37.6564  c-0.0002,0.0002-0.0004,0.0004-0.0006,0.0006l-0.2375,0.2375c-0.8984,0.8979-1.5356,2.0239-1.8423,3.2554l-2.4258,9.6992  c-0.085,0.3408,0.0146,0.7012,0.2632,0.9497c0.1899,0.1899,0.4453,0.293,0.707,0.293c0.0806,0,0.1621-0.0098,0.2427-0.0298  l9.6987-2.4258c1.2319-0.3066,2.3579-0.9438,3.2554-1.8423l0.2365-0.2365c0.001-0.001,0.0021-0.0021,0.0031-0.0031l24.04-24.0396  c0.0001-0.0001,0.0001-0.0001,0.0002-0.0001s0.0001-0.0001,0.0001-0.0002l3.5355-3.5355  C55.48,18.4199,55.48,15.8823,53.9204,14.3223z M25.6362,41.6064h-3.2427v-3.2427c0-0.5522-0.4478-1-1-1h-1.8282l21.6271-21.6274  l7.0712,7.0712L26.6362,44.4341v-1.8277C26.6362,42.0542,26.1885,41.6064,25.6362,41.6064z M22.3657,47.6958l-3.9698,0.9928  c-0.2984-0.6806-0.7137-1.308-1.2451-1.84c-0.5317-0.531-1.159-0.9464-1.8395-1.2447l0.9929-3.9702  c0.2134-0.8558,0.6535-1.6372,1.2682-2.27h2.8212v3.2427c0,0.5522,0.4478,1,1,1h3.2427v2.8208  C24.0038,47.0421,23.2222,47.4824,22.3657,47.6958z M52.5063,18.5649l-2.8287,2.8286l-7.0712-7.0712l2.8286-2.8286  c0.3779-0.3774,0.8799-0.5854,1.4141-0.5854s1.0366,0.208,1.4146,0.5854l4.2427,4.2427  C53.2856,16.5161,53.2861,17.7852,52.5063,18.5649z"></path></svg></g></g></svg>