<svg xmlns="http://www.w3.org/2000/svg" xmlns:xlink="http://www.w3.org/1999/xlink" width="100" height="100" viewBox="0 0 100 100"><g><g transform="translate(50 50) scale(0.69 0.69) rotate(0) translate(-50 -50)" style="fill:#000000"><svg fill="#000000" xmlns="http://www.w3.org/2000/svg" xmlns:xlink="http://www.w3.org/1999/xlink" version="1.1" x="0px" y="0px" viewBox="0 0 98 98" style="enable-background:new 0 0 98 98;" xml:space="preserve"><g><g><g><path d="M84.3,90.1H13.7c-1.7,0-3-1.3-3-3c0-21.2,13.6-32.9,38.3-32.9s38.3,11.7,38.3,32.9C87.3,88.8,86,90.1,84.3,90.1z"></path></g></g><g><path d="M49,49.8c-11,0-19.9-9.7-19.9-21.6c0-11.6,8.6-20.3,19.9-20.3s19.9,8.7,19.9,20.3C68.9,40.1,60,49.8,49,49.8z"></path></g></g></svg></g></g></svg>