<svg xmlns="http://www.w3.org/2000/svg" xmlns:xlink="http://www.w3.org/1999/xlink" width="100" height="100" viewBox="0 0 100 100"><g><g transform="translate(50 50) scale(0.69 0.69) rotate(0) translate(-50 -50)" style="fill:#000000"><svg fill="#000000" xmlns="http://www.w3.org/2000/svg" xmlns:xlink="http://www.w3.org/1999/xlink" version="1.1" x="0px" y="0px" viewBox="0 0 100 100" enable-background="new 0 0 100 100" xml:space="preserve"><path d="M93.711,35.456l-3.618-3.618c-0.586-0.586-1.535-0.586-2.121,0c-0.957,0.957-2.626,0.958-3.583-0.001  c-0.479-0.478-0.742-1.114-0.742-1.79s0.264-1.312,0.742-1.79c0.281-0.281,0.439-0.663,0.439-1.061s-0.158-0.779-0.439-1.061  l-2.411-2.41c-0.563-0.563-1.56-0.562-2.121,0c-0.956,0.957-2.625,0.956-3.581-0.001c-0.479-0.478-0.742-1.114-0.742-1.79  c0-0.677,0.264-1.313,0.742-1.792c0.281-0.281,0.439-0.663,0.439-1.061s-0.158-0.78-0.439-1.061l-2.41-2.409  c-0.586-0.585-1.535-0.585-2.121,0c-0.957,0.956-2.626,0.956-3.583-0.001c-0.986-0.987-0.986-2.595,0-3.582  c0.586-0.586,0.586-1.536,0-2.122l-3.619-3.618c-0.586-0.585-1.535-0.585-2.121,0L47.387,21.324  c-0.001,0.001-0.003,0.001-0.004,0.002s-0.001,0.002-0.002,0.004L6.289,62.422c-0.281,0.281-0.439,0.663-0.439,1.061  s0.158,0.779,0.439,1.061l3.619,3.618c0.586,0.585,1.535,0.585,2.121,0c0.957-0.956,2.625-0.956,3.582,0  c0.987,0.988,0.987,2.595,0,3.582c-0.586,0.585-0.586,1.535,0,2.121l2.409,2.41c0.586,0.586,1.536,0.586,2.12,0.001  c0.96-0.958,2.628-0.957,3.584,0c0.479,0.478,0.742,1.114,0.742,1.79c0,0.677-0.264,1.313-0.742,1.792  c-0.281,0.281-0.439,0.663-0.439,1.061s0.158,0.779,0.439,1.061l2.409,2.409c0.586,0.586,1.536,0.585,2.12,0.001  c0.959-0.957,2.627-0.957,3.584,0c0.986,0.987,0.986,2.595,0,3.582c-0.586,0.586-0.586,1.536,0,2.121l3.619,3.619  c0.281,0.281,0.663,0.439,1.061,0.439s0.779-0.158,1.061-0.439l41.093-41.093c0,0,0.001-0.001,0.002-0.001l0.001-0.002  l15.037-15.037C94.297,36.992,94.297,36.042,93.711,35.456z M36.518,90.529l-1.645-1.645c1.18-2.106,0.875-4.828-0.914-6.617  c-1.044-1.045-2.434-1.621-3.912-1.621c-0.964,0-1.89,0.245-2.707,0.705l-0.578-0.578c0.46-0.818,0.705-1.744,0.705-2.708  c0-1.478-0.576-2.867-1.621-3.912c-1.045-1.045-2.435-1.621-3.913-1.621c-0.963,0-1.889,0.245-2.706,0.704l-0.58-0.58  c1.18-2.106,0.875-4.828-0.914-6.618c-1.045-1.044-2.435-1.62-3.912-1.62c-0.964,0-1.89,0.245-2.707,0.704l-1.643-1.642  l38.974-38.974l27.047,27.047L36.518,90.529z M77.612,49.434L50.565,22.387L63.481,9.471l1.645,1.644  c-1.18,2.107-0.875,4.828,0.914,6.617c1.045,1.045,2.436,1.621,3.913,1.621c0.964,0,1.89-0.245,2.707-0.704l0.578,0.578  c-0.46,0.817-0.705,1.743-0.705,2.707c0,1.478,0.576,2.867,1.621,3.912c1.045,1.045,2.435,1.621,3.913,1.621  c0.963,0,1.889-0.245,2.705-0.704l0.579,0.578c-0.46,0.817-0.705,1.743-0.705,2.707c0,1.478,0.576,2.867,1.62,3.911  c1.045,1.046,2.435,1.622,3.914,1.622c0.963,0,1.89-0.245,2.707-0.705l1.642,1.642L77.612,49.434z M22.039,58.467  c-0.586,0.585-0.586,1.535,0,2.121L39.41,77.96c0.281,0.281,0.663,0.439,1.061,0.439s0.779-0.158,1.061-0.439L66.94,52.551  c0.281-0.281,0.439-0.663,0.439-1.061s-0.158-0.779-0.439-1.061L49.568,33.059c-0.586-0.586-1.535-0.586-2.121,0L22.039,58.467z   M63.759,51.49L40.471,74.778l-15.25-15.25L48.508,36.24L63.759,51.49z M31.779,62.55c0.293,0.293,0.677,0.439,1.061,0.439  s0.768-0.146,1.061-0.439l15.297-15.296c0.586-0.585,0.586-1.535,0-2.121s-1.535-0.586-2.121,0L31.779,60.429  C31.193,61.014,31.193,61.964,31.779,62.55z M47.431,56.116l-9.981,9.981c-0.586,0.585-0.586,1.536,0,2.121  c0.293,0.293,0.677,0.439,1.061,0.439s0.768-0.146,1.061-0.439l9.981-9.981c0.586-0.585,0.586-1.536,0-2.121  C48.966,55.53,48.017,55.53,47.431,56.116z"></path></svg></g></g></svg>