<svg id="Laag_1" data-name="Laag 1" xmlns="http://www.w3.org/2000/svg" viewBox="0 0 92 92"><defs><style>.cls-1{fill:#fefefe;stroke:#e43f3b;stroke-miterlimit:10;stroke-width:2px;}.cls-2{fill:#e43f3b;}</style></defs><title>ticket-rood</title><circle class="cls-1" cx="46" cy="46" r="45"/><path class="cls-2" d="M77.14,41,74.9,38.72a.94.94,0,0,0-1.32,0,1.59,1.59,0,0,1-2.22,0,1.56,1.56,0,0,1-.47-1.11,1.54,1.54,0,0,1,.47-1.11,1,1,0,0,0,.27-.66.94.94,0,0,0-.27-.66l-1.5-1.5a1,1,0,0,0-1.32,0,1.59,1.59,0,0,1-2.22,0,1.53,1.53,0,0,1-.46-1.11,1.55,1.55,0,0,1,.46-1.11,1,1,0,0,0,.27-.66.94.94,0,0,0-.27-.66l-1.5-1.5a.94.94,0,0,0-1.32,0,1.59,1.59,0,0,1-2.22,0,1.58,1.58,0,0,1,0-2.22.94.94,0,0,0,0-1.32L59,22.85a.94.94,0,0,0-1.32,0l-9.33,9.34h0L22.86,57.71a.94.94,0,0,0-.28.66.91.91,0,0,0,.28.66l2.24,2.25a.94.94,0,0,0,1.32,0,1.59,1.59,0,0,1,2.22,0,1.56,1.56,0,0,1,0,2.22.94.94,0,0,0,0,1.32l1.5,1.5a.94.94,0,0,0,1.32,0,1.59,1.59,0,0,1,2.22,0,1.53,1.53,0,0,1,.46,1.11,1.55,1.55,0,0,1-.46,1.11.94.94,0,0,0,0,1.32l1.5,1.5a.94.94,0,0,0,1.32,0,1.59,1.59,0,0,1,2.22,0,1.58,1.58,0,0,1,0,2.22.94.94,0,0,0,0,1.32L41,77.15a.94.94,0,0,0,.66.27,1,1,0,0,0,.66-.27L67.8,51.63h0l9.33-9.33A.92.92,0,0,0,77.14,41ZM41.63,75.17l-1-1A3.45,3.45,0,0,0,40,70a3.41,3.41,0,0,0-2.43-1,3.37,3.37,0,0,0-1.68.44l-.36-.36A3.48,3.48,0,0,0,36,67.43,3.45,3.45,0,0,0,32.57,64a3.37,3.37,0,0,0-1.68.44l-.36-.36A3.45,3.45,0,0,0,30,60a3.41,3.41,0,0,0-2.43-1,3.48,3.48,0,0,0-1.68.44l-1-1L49,34.17,65.83,51ZM67.15,49.65l-16.8-16.8,8-8,1,1A3.45,3.45,0,0,0,60,30a3.41,3.41,0,0,0,2.43,1,3.37,3.37,0,0,0,1.68-.44l.36.36A3.48,3.48,0,0,0,64,32.57,3.45,3.45,0,0,0,67.43,36a3.48,3.48,0,0,0,1.68-.44l.36.36A3.37,3.37,0,0,0,69,37.61a3.45,3.45,0,0,0,3.44,3.44,3.48,3.48,0,0,0,1.68-.44l1,1ZM32.64,55.26a.92.92,0,0,0,0,1.32L43.42,67.36a.94.94,0,0,0,.66.28.91.91,0,0,0,.66-.28L60.52,51.58a.93.93,0,0,0,0-1.31L49.73,39.48a.94.94,0,0,0-1.32,0Zm25.9-4.33L44.08,65.39l-9.47-9.47L49.07,41.46ZM38.68,57.79a.93.93,0,0,0,.66.28.9.9,0,0,0,.66-.28l9.5-9.5a.91.91,0,0,0,0-1.31.92.92,0,0,0-1.32,0l-9.5,9.5A.93.93,0,0,0,38.68,57.79Zm9.72-4L42.21,60a.91.91,0,0,0,0,1.31.91.91,0,0,0,1.31,0l6.2-6.19A.93.93,0,1,0,48.4,53.8Z" transform="translate(-4 -4)"/></svg>